<svg xmlns="http://www.w3.org/2000/svg" viewBox="0 0 512 512" width="512" height="512" role="img" aria-label="Cognisaarthi">
  <title>Cognisaarthi</title>
  <!-- Warm paper background, inset enough to survive maskable cropping. -->
  <rect width="512" height="512" fill="#faf6ef"/>
  <!-- The marigold mark, matching components/ui/Logo.tsx: a back ring of
       petals rotated half a step, a front ring, and the forest-green
       centre. Colours are literal here because a standalone icon cannot
       read CSS variables. -->
  <g transform="translate(256 256) scale(5.2) translate(-24 -24)">
    <g fill="#c0842a" opacity="0.55">
      <ellipse cx="24" cy="11" rx="5.4" ry="9.4" transform="rotate(22.5 24 24)"/>
      <ellipse cx="24" cy="11" rx="5.4" ry="9.4" transform="rotate(67.5 24 24)"/>
      <ellipse cx="24" cy="11" rx="5.4" ry="9.4" transform="rotate(112.5 24 24)"/>
      <ellipse cx="24" cy="11" rx="5.4" ry="9.4" transform="rotate(157.5 24 24)"/>
      <ellipse cx="24" cy="11" rx="5.4" ry="9.4" transform="rotate(202.5 24 24)"/>
      <ellipse cx="24" cy="11" rx="5.4" ry="9.4" transform="rotate(247.5 24 24)"/>
      <ellipse cx="24" cy="11" rx="5.4" ry="9.4" transform="rotate(292.5 24 24)"/>
      <ellipse cx="24" cy="11" rx="5.4" ry="9.4" transform="rotate(337.5 24 24)"/>
    </g>
    <g fill="#c0842a">
      <ellipse cx="24" cy="12.5" rx="5.6" ry="9.6"/>
      <ellipse cx="24" cy="12.5" rx="5.6" ry="9.6" transform="rotate(45 24 24)"/>
      <ellipse cx="24" cy="12.5" rx="5.6" ry="9.6" transform="rotate(90 24 24)"/>
      <ellipse cx="24" cy="12.5" rx="5.6" ry="9.6" transform="rotate(135 24 24)"/>
      <ellipse cx="24" cy="12.5" rx="5.6" ry="9.6" transform="rotate(180 24 24)"/>
      <ellipse cx="24" cy="12.5" rx="5.6" ry="9.6" transform="rotate(225 24 24)"/>
      <ellipse cx="24" cy="12.5" rx="5.6" ry="9.6" transform="rotate(270 24 24)"/>
      <ellipse cx="24" cy="12.5" rx="5.6" ry="9.6" transform="rotate(315 24 24)"/>
    </g>
    <circle cx="24" cy="24" r="7.6" fill="#1e5147"/>
    <circle cx="24" cy="24" r="3.1" fill="#faefda"/>
  </g>
</svg>
